<?xml version="1.0" ?><svg viewBox="0 0 64 64" xmlns="http://www.w3.org/2000/svg"><title/><g id="Cup"><path d="M14.82,55.4992l-.81,4.84a1.0389,1.0389,0,0,0,.23.81,1.0111,1.0111,0,0,0,.76.35H49a1.0111,1.0111,0,0,0,.76-.35,1.0389,1.0389,0,0,0,.23-.81l-.81-4.84Z"/><path d="M38,49.4992H26a15.0646,15.0646,0,0,1-2.14-.15l-1.56,4.15H41.7l-1.56-4.15A15.0646,15.0646,0,0,1,38,49.4992Z"/><path d="M51,11.7391v-8.24a1.0053,1.0053,0,0,0-.38-.79,1.0217,1.0217,0,0,0-.86-.18l-16.89,4.17v.01l17.4,4.83Z"/><path d="M56,15.4992H51v-1.69l-1.14-.32-.13-.03-17.19-4.77L13,3.2592v12.24H8a5.0059,5.0059,0,0,0-5,5v13a5.9631,5.9631,0,0,0,10.3755,4.0481A13.01,13.01,0,0,0,26,47.4992H38a13.01,13.01,0,0,0,12.6245-9.9519A5.9631,5.9631,0,0,0,61,33.4992v-13A5.0059,5.0059,0,0,0,56,15.4992ZM13,29.04a5.9687,5.9687,0,0,0-4-1.54,1,1,0,0,0,0,2,4.0042,4.0042,0,0,1,4,4,4.054,4.054,0,0,1-4.0005,4,4.0039,4.0039,0,0,1-3.9995-4v-13a3.0033,3.0033,0,0,1,3-3h5Zm29.51-.9205-3.69,3.97.66,5.38a1.8205,1.8205,0,0,1-2.57,1.86L32,37.0491l-4.91,2.28a1.91,1.91,0,0,1-.77.17,1.8269,1.8269,0,0,1-1.8-2.03l.66-5.38-3.69-3.97a1.8111,1.8111,0,0,1-.4-1.79,1.792,1.792,0,0,1,1.37-1.22l5.32-1.04,2.64-4.74a1.8072,1.8072,0,0,1,3.16,0l2.64,4.74,5.31,1.04a1.79,1.79,0,0,1,1.38,1.22A1.8111,1.8111,0,0,1,42.51,28.1191ZM59,33.4992a4.0039,4.0039,0,0,1-3.9995,4,4.054,4.054,0,0,1-4.0005-4,4.0042,4.0042,0,0,1,4-4,1,1,0,0,0,0-2,5.9687,5.9687,0,0,0-4,1.54v-11.54h5a3.0033,3.0033,0,0,1,3,3Z"/></g></svg>