<?xml version="1.0" ?><!-- Uploaded to: SVG Repo, www.svgrepo.com, Generator: SVG Repo Mixer Tools -->
<svg fill="#000000" width="800px" height="800px" viewBox="0 0 64 64" data-name="Layer 1" id="Layer_1" xmlns="http://www.w3.org/2000/svg"><title/><path d="M21.31,52.45h-.17a2,2,0,0,1-1.82-2.16l2.87-34.72a2,2,0,1,1,4,.33L23.3,50.61A2,2,0,0,1,21.31,52.45Z"/><path d="M36.82,50.28l-.24,0A2,2,0,0,1,34.83,48l.33-2.71a2,2,0,1,1,4,.48l-.32,2.7A2,2,0,0,1,36.82,50.28Z"/><path d="M38,36.62h-.17A2,2,0,0,1,36,34.46L37.7,13.39a2,2,0,1,1,4,.33L39.94,34.79A2,2,0,0,1,38,36.62Z"/><path d="M46.78,27.68h-.17L11.89,24.8a2,2,0,0,1-1.83-2.16,2,2,0,0,1,2.16-1.82l34.72,2.87a2,2,0,0,1-.16,4Z"/><path d="M49,43.19h-.17L14.06,40.31a2,2,0,0,1-1.83-2.16,2,2,0,0,1,2.16-1.82L49.11,39.2a2,2,0,0,1-.16,4Z"/></svg>