<?xml version="1.0" ?><svg viewBox="0 0 64 64" xmlns="http://www.w3.org/2000/svg"><title/><g data-name="Champ Medal" id="Champ_Medal"><path d="M32,25A15,15,0,1,0,47,40,15.0183,15.0183,0,0,0,32,25Zm5,23a1.0029,1.0029,0,0,1-1,1H28a1,1,0,0,1,0-2h7V41H29a1,1,0,0,1,0-2h6V33H28a1,1,0,0,1,0-2h8a1.0029,1.0029,0,0,1,1,1Z"/><path d="M32,18a21.5108,21.5108,0,0,0-4.17.4A21.9944,21.9944,0,1,0,32,18Zm0,39A17,17,0,1,1,49,40,17.0242,17.0242,0,0,1,32,57Z"/><path d="M19.01,19.81,11.46,2H7a1.0045,1.0045,0,0,0-.92,1.39l8.59,20.02A24.003,24.003,0,0,1,19.01,19.81Z"/><path d="M27.45,16.43c.12-.02.25-.05.37-.06L21.92,2.61A1.0037,1.0037,0,0,0,21,2H13.63l7.13,16.79A23.8885,23.8885,0,0,1,27.45,16.43Z"/><path d="M50.45,2H43a1.0037,1.0037,0,0,0-.92.61l-5.9,13.76a23.385,23.385,0,0,1,7.01,2.41Z"/><path d="M57.83,2.45A.982.982,0,0,0,57,2H52.63L44.94,19.8a23.8287,23.8287,0,0,1,4.39,3.62L57.92,3.39A.9851.9851,0,0,0,57.83,2.45Z"/></g></svg>